<?xml version="1.0" encoding="UTF-8"?>
<svg width="64px" height="64px" viewBox="0 0 64 64" version="1.1" xmlns="http://www.w3.org/2000/svg" xmlns:xlink="http://www.w3.org/1999/xlink">
    <title>icons-shopping-cart-white</title>
    <g id="Page-1" stroke="none" stroke-width="1" fill="none" fill-rule="evenodd">
        <g id="icons-shopping-cart-white">
            <polygon id="Fill-1" points="0 64 64 64 64 0 0 0"></polygon>
            <g id="Group-10" transform="translate(14.000000, 17.000000)" fill="#FFFFFF">
                <path d="M33.4478824,23.2514118 L31.6104706,23.2514118 C30.9631765,22.6069412 30.0723529,22.2074118 29.0890588,22.2074118 C28.1057647,22.2074118 27.2142353,22.6069412 26.5669412,23.2514118 L19.3316471,23.2514118 C18.6843529,22.6069412 17.7928235,22.2074118 16.8102353,22.2074118 C15.8452941,22.2074118 14.97,22.5935294 14.3255294,23.2168235 C12.3356471,22.9584706 10.7869412,21.1358824 10.7869412,18.9285882 L10.7869412,6.86788235 C10.7869412,5.10741176 9.57988235,3.67517647 8.094,3.67517647 L5.96505882,3.67517647 C5.72929412,3.67517647 5.40105882,3.28835294 5.40105882,2.90788235 C5.40105882,2.562 5.70105882,2.16882353 5.96505882,2.16882353 L8.47023529,2.16882353 C9.92576471,2.16882353 11.2831765,3.35541176 11.9163529,4.94858824 C12.1542353,5.54505882 12.2932941,6.19729412 12.2932941,6.86788235 L12.2932941,18.0328235 L12.2932941,18.9285882 C12.2932941,20.5605882 13.5102353,21.7450588 15.1867059,21.7450588 L33.4478824,21.7450588 C33.7118824,21.7450588 34.0125882,22.1481176 34.0125882,22.5003529 C34.0125882,22.8511765 33.7118824,23.2514118 33.4478824,23.2514118 M30.7831765,25.7841176 C30.7831765,26.718 30.0229412,27.4782353 29.0890588,27.4782353 C28.1544706,27.4782353 27.3949412,26.718 27.3949412,25.7841176 C27.3949412,25.554 27.4415294,25.3337647 27.5255294,25.1332941 C27.7817647,24.522 28.3852941,24.09 29.0890588,24.09 C29.7921176,24.09 30.3963529,24.522 30.6518824,25.1332941 C30.7358824,25.3337647 30.7831765,25.554 30.7831765,25.7841176 M18.5036471,25.7841176 C18.5036471,26.718 17.7441176,27.4782353 16.8102353,27.4782353 C15.8756471,27.4782353 15.1154118,26.718 15.1154118,25.7841176 C15.1154118,25.554 15.1627059,25.3337647 15.2467059,25.1332941 C15.5022353,24.522 16.1064706,24.09 16.8102353,24.09 C17.5132941,24.09 18.1175294,24.522 18.3737647,25.1332941 C18.4570588,25.3337647 18.5036471,25.554 18.5036471,25.7841176 M33.6314118,6.00247059 L33.1584706,8.51258824 L21.1951765,8.51258824 C20.6749412,8.51258824 20.2542353,8.934 20.2542353,9.45352941 C20.2542353,9.97305882 20.6749412,10.3944706 21.1951765,10.3944706 L32.8041176,10.3944706 L32.4031765,12.5269412 L21.1951765,12.5269412 C20.6749412,12.5269412 20.2542353,12.9476471 20.2542353,13.4678824 C20.2542353,13.9874118 20.6749412,14.4088235 21.1951765,14.4088235 L32.0488235,14.4088235 L32.0092941,14.6149412 C31.9217647,15.0808235 31.8307059,15.5629412 31.6697647,15.8565882 C31.5342353,16.1036471 31.2850588,16.3104706 31.0027059,16.4092941 C30.6194118,16.5427059 30.0617647,16.5427059 29.5217647,16.5427059 L29.4928235,16.5427059 L21.7295294,16.5412941 L14.1751765,16.5398824 L14.1751765,6.86788235 C14.1751765,6.57282353 14.1504706,6.28341176 14.1137647,5.99682353 C21.0638824,5.99894118 30.6483529,6.00176471 33.6314118,6.00247059 M33.4478824,19.8624706 L15.1867059,19.8624706 C14.8090588,19.8624706 14.1751765,19.7410588 14.1751765,18.9285882 L14.1751765,18.4217647 C20.3078824,18.4231765 23.2605882,18.4238824 29.4921176,18.4252941 L29.5217647,18.4252941 C30.2311765,18.4252941 30.9554118,18.4196471 31.6245882,18.1852941 C32.3375294,17.9368235 32.9572941,17.4236471 33.3201176,16.7622353 C33.6222353,16.2102353 33.7429412,15.5812941 33.8594118,14.9636471 C34.4276471,11.9474118 34.9944706,8.93117647 35.5627059,5.91494118 C35.6735294,5.32482353 35.7208235,4.57729412 35.2069412,4.26529412 C35.0163529,4.14882353 34.7883529,4.12552941 34.5624706,4.12058824 C34.5144706,4.11988235 22.0055294,4.11635294 14.1045882,4.11494118 L14.1010588,4.11494118 C13.938,4.11494118 13.7742353,4.11917647 13.6118824,4.12905882 C12.6737647,1.90552941 10.6732941,0.286235294 8.47023529,0.286235294 L5.96505882,0.286235294 C4.662,0.286235294 3.51847059,1.51164706 3.51847059,2.90788235 C3.51847059,4.16082353 4.52294118,5.55705882 5.96505882,5.55705882 L8.094,5.55705882 C8.46176471,5.55705882 8.90505882,6.14152941 8.90505882,6.86788235 L8.90505882,18.9285882 C8.90505882,21.8163529 10.794,24.2417647 13.3408235,24.9314118 C13.2730588,25.2052941 13.2328235,25.4897647 13.2328235,25.7841176 C13.2328235,27.7563529 14.838,29.3608235 16.8102353,29.3608235 C18.7824706,29.3608235 20.3862353,27.7563529 20.3862353,25.7841176 C20.3862353,25.5610588 20.3629412,25.3450588 20.3241176,25.1332941 L25.5751765,25.1332941 C25.5356471,25.3450588 25.5123529,25.5610588 25.5123529,25.7841176 C25.5123529,27.7563529 27.1168235,29.3608235 29.0890588,29.3608235 C31.0605882,29.3608235 32.6657647,27.7563529 32.6657647,25.7841176 C32.6657647,25.5610588 32.6417647,25.3450588 32.6036471,25.1332941 L33.4478824,25.1332941 C34.7516471,25.1332941 35.8951765,23.9029412 35.8951765,22.5003529 C35.8951765,21.0949412 34.7516471,19.8624706 33.4478824,19.8624706" id="Fill-2"></path>
                <path d="M6.43687059,14.4085412 L2.95334118,14.4085412 C2.43381176,14.4085412 2.0124,13.9871294 2.0124,13.4676 C2.0124,12.9480706 2.43381176,12.5266588 2.95334118,12.5266588 L6.43687059,12.5266588 C6.9564,12.5266588 7.37851765,12.9480706 7.37851765,13.4676 C7.37851765,13.9871294 6.9564,14.4085412 6.43687059,14.4085412" id="Fill-4"></path>
                <path d="M6.43687059,18.4225412 L2.20087059,18.4225412 C1.68134118,18.4225412 1.25922353,18.0011294 1.25922353,17.4808941 C1.25922353,16.9613647 1.68134118,16.5399529 2.20087059,16.5399529 L6.43687059,16.5399529 C6.9564,16.5399529 7.37851765,16.9613647 7.37851765,17.4808941 C7.37851765,18.0011294 6.9564,18.4225412 6.43687059,18.4225412" id="Fill-6"></path>
                <path d="M6.81324706,22.4366118 L1.07089412,22.4366118 C0.551364706,22.4366118 0.129952941,22.0152 0.129952941,21.4949647 C0.129952941,20.9754353 0.551364706,20.5540235 1.07089412,20.5540235 L6.81324706,20.5540235 C7.33348235,20.5540235 7.75489412,20.9754353 7.75489412,21.4949647 C7.75489412,22.0152 7.33348235,22.4366118 6.81324706,22.4366118" id="Fill-8"></path>
            </g>
        </g>
    </g>
</svg>