<?xml version="1.0" encoding="UTF-8"?>
<svg width="64px" height="64px" viewBox="0 0 64 64" version="1.1" xmlns="http://www.w3.org/2000/svg" xmlns:xlink="http://www.w3.org/1999/xlink">
    <!-- Generator: Sketch 63.1 (92452) - https://sketch.com -->
    <title>icons-special-event-blue</title>
    <desc>Created with Sketch.</desc>
    <defs>
        <polygon id="path-1" points="0 7.5e-05 64 7.5e-05 64 64.000175 0 64.000175"></polygon>
    </defs>
    <g id="icons-special-event-blue" stroke="none" stroke-width="1" fill="none" fill-rule="evenodd">
        <g id="icon">
            <g id="bg">
                <mask id="mask-2" fill="white">
                    <use xlink:href="#path-1"></use>
                </mask>
                <g id="Clip-2"></g>
                <path d="M31.99985,64.000075 C14.32685,64.000075 -0.00015,49.673075 -0.00015,32.000075 C-0.00015,14.327075 14.32685,7.5e-05 31.99985,7.5e-05 C49.67285,7.5e-05 63.99985,14.327075 63.99985,32.000075 C63.99985,49.673075 49.67285,64.000075 31.99985,64.000075 Z" id="Fill-1" mask="url(#mask-2)"></path>
            </g>
            <g id="Group" transform="translate(14.000000, 15.000000)">
                <path d="M18.446925,2.742675 C18.152925,1.853175 18.819675,0.941175 19.744425,0.941175 C20.315925,0.941175 20.849925,1.304175 21.040425,1.878675 L29.075925,22.048425 C29.313675,22.766925 28.925925,23.540925 28.210425,23.779425 C27.494175,24.017925 26.720175,23.630175 26.482425,22.913175 C26.482425,22.913175 21.408675,21.214425 15.393675,23.210175 L19.347675,29.357175 C19.758675,29.962425 19.472175,30.788175 18.788925,31.013925 L16.100175,31.909425 C15.915675,31.971675 15.723675,32.002425 15.533925,32.002425 C15.029925,32.002425 14.538675,31.787925 14.191425,31.396425 L8.756175,25.400175 C5.796675,26.333175 2.447925,25.256925 1.329675,22.469175 C1.072425,21.829425 0.941175,21.147675 0.941175,20.462925 C0.941175,18.476925 2.051175,16.450425 4.460175,15.266925 C16.518675,9.346425 18.446925,2.742675 18.446925,2.742675" id="Fill-4" fill="#FFFFFF"></path>
                <path d="M8.75625,24.459 C9.018,24.459 9.2715,24.5685 9.45375,24.768 L14.88975,30.76425 C15.12,31.0245 15.47625,31.12575 15.801,31.01625 L18.49125,30.12075 C18.55125,30.10125 18.57675,30.05775 18.58725,30.024 C18.6045,29.97525 18.5985,29.92875 18.56925,29.88675 L14.60175,23.72025 C14.44425,23.475 14.409,23.17125 14.50575,22.8975 C14.6025,22.623 14.82075,22.40925 15.09675,22.31775 C21.3375,20.2455 26.56125,21.94725 26.781,22.02 C27.0615,22.11375 27.28125,22.335 27.375,22.6155 C27.4245,22.76175 27.53025,22.83375 27.58875,22.86375 C27.64725,22.893 27.768,22.93425 27.912,22.887 C28.1295,22.815 28.2495,22.58325 28.188,22.36425 L20.16675,2.22675 C20.15925,2.2095 20.15325,2.19225 20.14725,2.175 C20.0805,1.97325 19.89675,1.8825 19.7445,1.8825 C19.55775,1.8825 19.44975,1.99425 19.401,2.061 C19.353,2.12775 19.281,2.2665 19.341,2.44725 C19.40025,2.6295 19.404,2.82375 19.35075,3.00675 C19.2675,3.2925 17.1645,10.077 4.87425,16.11225 C2.973,17.046 1.8825,18.6315 1.8825,20.463 C1.8825,21.033 1.9905,21.5895 2.2035,22.11825 C3.1755,24.5415 6.15525,25.23375 8.47275,24.5025 C8.56575,24.474 8.66175,24.459 8.75625,24.459 M15.53475,32.94375 C14.754,32.94375 14.0085,32.607 13.488,32.02125 L8.4465,26.46075 C5.05425,27.25425 1.623,25.72875 0.45675,22.8195 C0.15375,22.068 -2.48689958e-14,21.27375 -2.48689958e-14,20.463 C-2.48689958e-14,17.92425 1.512,15.666 4.04475,14.4225 C14.39325,9.34125 17.01975,3.8295 17.46675,2.69175 C17.364,2.085 17.5065,1.4685 17.8755,0.95775 C18.309,0.35775 19.008,0 19.7445,0 C20.73,0 21.6015,0.6225 21.92475,1.5525 L29.94975,21.7005 C29.95725,21.71775 29.9625,21.73425 29.9685,21.75225 C30.36975,22.9605 29.71425,24.27 28.5075,24.67275 C27.92325,24.86775 27.297,24.82275 26.745,24.546 C26.35875,24.35175 26.0415,24.0615 25.81875,23.70225 C24.69525,23.412 21.1005,22.671 16.86525,23.7585 L20.13975,28.84875 C20.48925,29.36175 20.57775,30.018 20.37,30.62925 C20.163,31.23975 19.69425,31.70625 19.0845,31.908 L16.398,32.802 C16.119,32.89575 15.828,32.94375 15.53475,32.94375" id="Fill-6" fill="#222222"></path>
                <line x1="18.446925" y1="2.742675" x2="26.482425" y2="22.913175" id="Fill-8" fill="#FFFFFF"></line>
                <polygon id="Fill-10" fill="#222222" points="25.60785 23.260725 17.5731 3.090975 19.32135 2.394975 27.3561 22.563975"></polygon>
                <path d="M14.191575,31.3965 C14.539575,31.78725 15.030075,32.0025 15.534825,32.0025 C15.723825,32.0025 15.915825,31.97175 16.101075,31.9095 L18.789075,31.014 C19.472325,30.7875 19.758825,29.9625 19.347825,29.35725 L15.393825,23.21025 L8.756325,25.40025 L14.191575,31.3965 Z" id="Fill-12" fill="#222222"></path>
                <path d="M10.42545,25.841025 L14.88945,30.764025 C14.89095,30.766275 14.8932,30.768525 14.89545,30.770775 C15.11895,31.022775 15.4737,31.126275 15.8007,31.016025 L18.4917,30.120525 C18.55095,30.101775 18.57645,30.057525 18.5877,30.023775 C18.6042,29.975775 18.5982,29.928525 18.56895,29.887275 L14.9967,24.332775 L10.42545,25.841025 Z M15.53445,32.943525 C14.75595,32.943525 14.01195,32.608275 13.49145,32.025525 L8.05845,26.032275 C7.8447,25.796025 7.76445,25.468275 7.8462,25.160025 C7.9272,24.852525 8.15895,24.606525 8.4612,24.506775 L15.09795,22.316775 C15.5052,22.181775 15.9522,22.340025 16.18545,22.700775 L20.13945,28.848525 C20.48895,29.361525 20.57745,30.017775 20.37045,30.629025 C20.1627,31.239525 19.69395,31.706025 19.0842,31.907775 L16.39845,32.801775 C16.11945,32.895525 15.8277,32.943525 15.53445,32.943525 L15.53445,32.943525 Z" id="Fill-14" fill="#222222"></path>
                <path d="M27.0075,6.48975 C26.80125,6.48975 26.5935,6.42225 26.42025,6.2835 C26.01375,5.958 25.94925,5.3655 26.274,4.95975 L29.69775,0.69075 C30.02325,0.285 30.61575,0.21975 31.0215,0.5445 C31.42725,0.87 31.49175,1.46175 31.16625,1.8675 L27.7425,6.13725 C27.5565,6.36975 27.2835,6.48975 27.0075,6.48975" id="Fill-16" fill="#222222"></path>
                <path d="M35.059725,16.45215 C35.010225,16.45215 34.959225,16.4484 34.908975,16.4394 L30.426225,15.71565 C29.913975,15.6324 29.564475,15.1494 29.647725,14.6364 C29.730975,14.1234 30.215475,13.7709 30.726975,13.85715 L35.208975,14.58165 C35.722725,14.66415 36.071475,15.1479 35.987475,15.66015 C35.913975,16.12365 35.513475,16.45215 35.059725,16.45215" id="Fill-18" fill="#222222"></path>
                <path d="M29.111025,11.26215 C28.734525,11.26215 28.379025,11.0349 28.233525,10.6629 C28.044525,10.17915 28.283025,9.63315 28.767525,9.44415 L33.838275,7.46265 C34.321275,7.27215 34.868025,7.51215 35.057775,7.99665 C35.246775,8.4804 35.007525,9.0264 34.523775,9.2154 L29.453025,11.1969 C29.340525,11.24115 29.224275,11.26215 29.111025,11.26215" id="Fill-20" fill="#222222"></path>
            </g>
        </g>
    </g>
</svg>