<?xml version="1.0" encoding="UTF-8"?>
<svg width="36px" height="36px" viewBox="0 0 36 36" version="1.1" xmlns="http://www.w3.org/2000/svg" xmlns:xlink="http://www.w3.org/1999/xlink">
    <!-- Generator: Sketch 63.1 (92452) - https://sketch.com -->
    <title>icons-special-event-blue-m</title>
    <desc>Created with Sketch.</desc>
    <defs>
        <polygon id="path-1" points="0 5.3125e-05 35.9998907 5.3125e-05 35.9998907 36.0000001 0 36.0000001"></polygon>
    </defs>
    <g id="icons-special-event-blue-m" stroke="none" stroke-width="1" fill="none" fill-rule="evenodd">
        <g id="icon">
            <g id="Group-3">
                <mask id="mask-2" fill="white">
                    <use xlink:href="#path-1"></use>
                </mask>
                <g id="Clip-2"></g>
                <path d="M17.9998938,36.0000531 C8.05883125,36.0000531 -0.00010625,27.9411156 -0.00010625,18.0000531 C-0.00010625,8.05899062 8.05883125,5.3125e-05 17.9998938,5.3125e-05 C27.9409563,5.3125e-05 35.9998937,8.05899062 35.9998937,18.0000531 C35.9998937,27.9411156 27.9409563,36.0000531 17.9998938,36.0000531 Z" id="Fill-1" mask="url(#mask-2)"></path>
            </g>
            <path d="M18.3163594,8.27520312 C18.1081094,7.64514062 18.5803906,6.99914062 19.2354219,6.99914062 C19.6402344,6.99914062 20.0184844,7.25626562 20.1534219,7.66320312 L25.8452344,21.9501094 C26.0136406,22.4590469 25.7389844,23.0072969 25.2321719,23.1762344 C24.7248281,23.3451719 24.1765781,23.0705156 24.0081719,22.5626406 C24.0081719,22.5626406 20.4142656,21.3593594 16.1536406,22.7730156 L18.9543906,27.1271406 C19.2455156,27.5558594 19.0425781,28.1407656 18.5586094,28.3006719 L16.6540781,28.9349844 C16.5233906,28.9790781 16.3873906,29.0008594 16.2529844,29.0008594 C15.8959844,29.0008594 15.5480156,28.8489219 15.3020469,28.5716094 L11.4520781,24.3242656 C9.35576562,24.9851406 6.98373438,24.2227969 6.19164063,22.2481406 C6.00942188,21.7949844 5.91645313,21.3120781 5.91645313,20.8270469 C5.91645313,19.4202969 6.70270313,17.9848594 8.40907812,17.1465469 C16.9505156,12.9528594 18.3163594,8.27520312 18.3163594,8.27520312" id="Fill-4" fill="#FFFFFF"></path>
            <path d="M11.4521313,23.6576 C11.6375375,23.6576 11.8171,23.7351625 11.9461938,23.876475 L15.7966938,28.1238187 C15.9597875,28.3081625 16.2121312,28.3798812 16.4421625,28.3023187 L18.3477563,27.6680062 C18.3902563,27.6541937 18.4083187,27.6233812 18.4157563,27.599475 C18.427975,27.5649437 18.423725,27.5320062 18.4030062,27.5022562 L15.5926938,23.1343187 C15.4811313,22.9606 15.4561625,22.7454437 15.5246938,22.5515375 C15.593225,22.3571 15.7478188,22.2056937 15.9433187,22.1408812 C20.36385,20.6730375 24.0640063,21.8784437 24.2196625,21.929975 C24.41835,21.9963812 24.5740063,22.1531 24.6404125,22.3517875 C24.675475,22.4553812 24.7503813,22.5063812 24.7918187,22.5276312 C24.8332562,22.54835 24.9187875,22.5775687 25.0207875,22.5441 C25.17485,22.4931 25.25985,22.3289437 25.2162875,22.1738187 L19.5345688,7.90975625 C19.5292563,7.8975375 19.5250063,7.88531875 19.5207562,7.8731 C19.473475,7.73019375 19.3433188,7.6659125 19.235475,7.6659125 C19.1031938,7.6659125 19.0266937,7.74506875 18.9921625,7.79235 C18.9581625,7.83963125 18.9071625,7.9379125 18.9496625,8.06594375 C18.9916313,8.1950375 18.9942875,8.33263125 18.9565688,8.46225625 C18.8976,8.6646625 17.407975,13.47035 8.70238125,17.7453187 C7.3556625,18.406725 6.583225,19.5297875 6.583225,20.8271 C6.583225,21.23085 6.659725,21.6250375 6.8106,21.9995687 C7.4991,23.7160375 9.60975625,24.2063812 11.2513188,23.6884125 C11.3171938,23.668225 11.3851938,23.6576 11.4521313,23.6576 M16.2535687,29.6676312 C15.7005375,29.6676312 15.172475,29.4291 14.8037875,29.0141937 L11.232725,25.0755062 C8.82988125,25.6375687 6.3994125,24.5570062 5.57331875,22.4962875 C5.35869375,21.963975 5.2497875,21.4013812 5.2497875,20.8271 C5.2497875,19.0288187 6.3207875,17.429225 8.11481875,16.5484125 C15.4450062,12.9491937 17.3054437,9.0450375 17.6220687,8.23913125 C17.5492875,7.80935 17.650225,7.3726625 17.9116,7.01088125 C18.2186625,6.58588125 18.7137875,6.332475 19.235475,6.332475 C19.9335375,6.332475 20.55085,6.7734125 20.7798187,7.4321625 L26.4641937,21.7036625 C26.4695062,21.7158812 26.473225,21.7275687 26.477475,21.7403187 C26.7616937,22.5961625 26.2973812,23.523725 25.4426,23.8090062 C25.0287562,23.9471312 24.5851625,23.9152562 24.1941625,23.719225 C23.9205687,23.5816312 23.69585,23.3760375 23.5380687,23.1215687 C22.7422562,22.915975 20.195975,22.3911 17.1960062,23.1614125 L19.5154437,26.7670062 C19.7630062,27.1303812 19.8256937,27.595225 19.6785375,28.0281937 C19.5319125,28.4606312 19.1998812,28.7910687 18.767975,28.933975 L16.8650375,29.567225 C16.6674125,29.6336312 16.4612875,29.6676312 16.2535687,29.6676312" id="Fill-6" fill="#222222"></path>
            <line x1="18.3163594" y1="8.27520313" x2="24.0081719" y2="22.5626406" id="Fill-8" fill="#FFFFFF"></line>
            <polygon id="Fill-10" fill="#222222" points="23.3886812 22.8088219 17.6974 8.52191563 18.9357438 8.02891562 24.627025 22.3152906"></polygon>
            <path d="M15.3021531,28.5716625 C15.5486531,28.8484437 15.8960906,29.0009125 16.2536219,29.0009125 C16.3874969,29.0009125 16.5234969,28.9791312 16.6547156,28.9350375 L18.5587156,28.300725 C19.0426844,28.1402875 19.2456219,27.5559125 18.9544969,27.1271937 L16.1537469,22.7730688 L11.4521844,24.3243187 L15.3021531,28.5716625 Z" id="Fill-12" fill="#222222"></path>
            <path d="M12.6344813,24.6365344 L15.7964813,28.1236594 C15.7975437,28.1252531 15.7991375,28.1268469 15.8007313,28.1284406 C15.9590437,28.3069406 16.210325,28.3802531 16.44195,28.3021594 L18.348075,27.6678469 C18.3900437,27.6545656 18.4081062,27.6232219 18.416075,27.5993156 C18.4277625,27.5653156 18.4235125,27.5318469 18.4027937,27.5026281 L15.87245,23.5681906 L12.6344813,24.6365344 Z M16.2533563,29.6674719 C15.7019188,29.6674719 15.1749188,29.4300031 14.8062313,29.0172219 L10.9578563,24.7720031 C10.80645,24.6046594 10.7496063,24.3725031 10.8075125,24.1541594 C10.8648875,23.9363469 11.0290438,23.7620969 11.2431375,23.6914406 L15.9441688,22.1401906 C16.2326375,22.0445656 16.5492625,22.1566594 16.7144813,22.4121906 L19.5152312,26.7668469 C19.7627938,27.1302219 19.8254813,27.5950656 19.6788563,28.0280344 C19.5317,28.4604719 19.1996688,28.7909094 18.7677625,28.9338156 L16.8653563,29.5670656 C16.6677313,29.6334719 16.461075,29.6674719 16.2533563,29.6674719 L16.2533563,29.6674719 Z" id="Fill-14" fill="#222222"></path>
            <path d="M23.9641313,10.7832875 C23.6761937,10.552725 23.6305062,10.1330375 23.8605375,9.84563125 L26.2856938,6.82175625 C26.5162562,6.53435 26.9359437,6.48813125 27.22335,6.7181625 C27.5107562,6.948725 27.5564437,7.36788125 27.3258812,7.6552875 L24.900725,10.6796937 C24.768975,10.8443812 24.5756,10.9293812 24.3801,10.9293812 C24.2340063,10.9293812 24.08685,10.8815687 23.9641313,10.7832875 Z" id="Fill-16" fill="#222222"></path>
            <path d="M30.0837594,17.9860812 C30.0486969,17.9860812 30.0125719,17.983425 29.9769781,17.97705 L26.8016969,17.4643937 C26.4388531,17.405425 26.1912906,17.0633 26.2502594,16.699925 C26.3092281,16.33655 26.6524156,16.0868625 27.0147281,16.1479562 L30.1894781,16.6611437 C30.5533844,16.7195812 30.8004156,17.0622375 30.7409156,17.4250812 C30.6888531,17.7533937 30.4051656,17.9860812 30.0837594,17.9860812" id="Fill-18" fill="#222222"></path>
            <path d="M25.8700969,14.3098312 C25.6034094,14.3098312 25.3515969,14.1488625 25.2485344,13.8853625 C25.1146594,13.5427062 25.2835969,13.1559562 25.6267844,13.0220812 L29.2185656,11.6185187 C29.5606906,11.4835812 29.9479719,11.6535812 30.0823781,11.9967687 C30.2162531,12.339425 30.0467844,12.726175 29.7041281,12.86005 L26.1123469,14.2636125 C26.0326594,14.2949562 25.9503156,14.3098312 25.8700969,14.3098312" id="Fill-20" fill="#222222"></path>
        </g>
    </g>
</svg>