<?xml version="1.0" encoding="UTF-8"?>
<svg width="36px" height="36px" viewBox="0 0 36 36" version="1.1" xmlns="http://www.w3.org/2000/svg" xmlns:xlink="http://www.w3.org/1999/xlink">
    <title>icons-shopping-cart-white-m</title>
    <g id="Page-1" stroke="none" stroke-width="1" fill="none" fill-rule="evenodd">
        <g id="icons-shopping-cart-white-m">
            <polygon id="Fill-1" points="0 36 36 36 36 0 0 0"></polygon>
            <g id="Group-10" transform="translate(5.000000, 7.000000)" fill="#FFFFFF">
                <path d="M24.1568039,16.7926863 L22.8297843,16.7926863 C22.3622941,16.3272353 21.7189216,16.0386863 21.0087647,16.0386863 C20.2986078,16.0386863 19.6547255,16.3272353 19.1872353,16.7926863 L13.9617451,16.7926863 C13.4942549,16.3272353 12.8503725,16.0386863 12.1407255,16.0386863 C11.4438235,16.0386863 10.8116667,16.317549 10.3462157,16.7677059 C8.90907843,16.5811176 7.79056863,15.2648039 7.79056863,13.6706471 L7.79056863,4.96013725 C7.79056863,3.68868627 6.91880392,2.65429412 5.84566667,2.65429412 L4.30809804,2.65429412 C4.13782353,2.65429412 3.90076471,2.37492157 3.90076471,2.10013725 C3.90076471,1.85033333 4.11743137,1.56637255 4.30809804,1.56637255 L6.11739216,1.56637255 C7.16860784,1.56637255 8.14896078,2.42335294 8.6062549,3.57398039 C8.77805882,4.00476471 8.8784902,4.47582353 8.8784902,4.96013725 L8.8784902,13.0237059 L8.8784902,13.6706471 C8.8784902,14.8493137 9.75739216,15.7047647 10.9681765,15.7047647 L24.1568039,15.7047647 C24.3474706,15.7047647 24.5646471,15.9958627 24.5646471,16.2502549 C24.5646471,16.5036275 24.3474706,16.7926863 24.1568039,16.7926863 M22.2322941,18.6218627 C22.2322941,19.2963333 21.6832353,19.8453922 21.0087647,19.8453922 C20.3337843,19.8453922 19.7852353,19.2963333 19.7852353,18.6218627 C19.7852353,18.4556667 19.8188824,18.2966078 19.879549,18.1518235 C20.0646078,17.7103333 20.5004902,17.3983333 21.0087647,17.3983333 C21.5165294,17.3983333 21.9529216,17.7103333 22.1374706,18.1518235 C22.1981373,18.2966078 22.2322941,18.4556667 22.2322941,18.6218627 M13.3637451,18.6218627 C13.3637451,19.2963333 12.8151961,19.8453922 12.1407255,19.8453922 C11.4657451,19.8453922 10.9166863,19.2963333 10.9166863,18.6218627 C10.9166863,18.4556667 10.9508431,18.2966078 11.0115098,18.1518235 C11.1960588,17.7103333 11.632451,17.3983333 12.1407255,17.3983333 C12.6484902,17.3983333 13.0848824,17.7103333 13.2699412,18.1518235 C13.330098,18.2966078 13.3637451,18.4556667 13.3637451,18.6218627 M24.2893529,4.33511765 L23.9477843,6.14798039 L15.3076275,6.14798039 C14.931902,6.14798039 14.6280588,6.45233333 14.6280588,6.82754902 C14.6280588,7.20276471 14.931902,7.50711765 15.3076275,7.50711765 L23.6918627,7.50711765 L23.4022941,9.04723529 L15.3076275,9.04723529 C14.931902,9.04723529 14.6280588,9.35107843 14.6280588,9.72680392 C14.6280588,10.1020196 14.931902,10.4063725 15.3076275,10.4063725 L23.1463725,10.4063725 L23.1178235,10.5552353 C23.0546078,10.8917059 22.9888431,11.239902 22.8726078,11.4519804 C22.7747255,11.6304118 22.5947647,11.7797843 22.3908431,11.8511569 C22.1140196,11.9475098 21.7112745,11.9475098 21.3212745,11.9475098 L21.3003725,11.9475098 L15.693549,11.9464902 L10.2376275,11.9454706 L10.2376275,4.96013725 C10.2376275,4.74703922 10.2197843,4.53801961 10.1932745,4.33103922 C15.2128039,4.33256863 22.1349216,4.33460784 24.2893529,4.33511765 M24.1568039,14.3451176 L10.9681765,14.3451176 C10.6954314,14.3451176 10.2376275,14.2574314 10.2376275,13.6706471 L10.2376275,13.3046078 C14.6668039,13.3056275 16.7993137,13.3061373 21.2998627,13.3071569 L21.3212745,13.3071569 C21.8336275,13.3071569 22.3566863,13.3030784 22.8399804,13.1338235 C23.3548824,12.9543725 23.8024902,12.5837451 24.0645294,12.1060588 C24.2827255,11.7073922 24.369902,11.2531569 24.4540196,10.8070784 C24.8644118,8.62868627 25.2737843,6.45029412 25.6841765,4.27190196 C25.7642157,3.84570588 25.7983725,3.30582353 25.4272353,3.0804902 C25.2895882,2.99637255 25.1249216,2.97954902 24.9617843,2.97598039 C24.9271176,2.97547059 15.8928824,2.97292157 10.1866471,2.97190196 L10.184098,2.97190196 C10.0663333,2.97190196 9.94805882,2.97496078 9.83080392,2.98209804 C9.15327451,1.37621569 7.7084902,0.20672549 6.11739216,0.20672549 L4.30809804,0.20672549 C3.367,0.20672549 2.54111765,1.0917451 2.54111765,2.10013725 C2.54111765,3.00503922 3.26656863,4.01343137 4.30809804,4.01343137 L5.84566667,4.01343137 C6.11127451,4.01343137 6.43143137,4.43554902 6.43143137,4.96013725 L6.43143137,13.6706471 C6.43143137,15.7562549 7.79566667,17.5079412 9.63503922,18.0060196 C9.58609804,18.2038235 9.55703922,18.4092745 9.55703922,18.6218627 C9.55703922,20.0462549 10.7163333,21.2050392 12.1407255,21.2050392 C13.5651176,21.2050392 14.7233922,20.0462549 14.7233922,18.6218627 C14.7233922,18.4607647 14.7065686,18.3047647 14.6785294,18.1518235 L18.4709608,18.1518235 C18.4424118,18.3047647 18.4255882,18.4607647 18.4255882,18.6218627 C18.4255882,20.0462549 19.5843725,21.2050392 21.0087647,21.2050392 C22.4326471,21.2050392 23.5919412,20.0462549 23.5919412,18.6218627 C23.5919412,18.4607647 23.5746078,18.3047647 23.5470784,18.1518235 L24.1568039,18.1518235 C25.0984118,18.1518235 25.9242941,17.2632353 25.9242941,16.2502549 C25.9242941,15.2352353 25.0984118,14.3451176 24.1568039,14.3451176" id="Fill-2"></path>
                <path d="M4.64885098,10.4061686 L2.13296863,10.4061686 C1.75775294,10.4061686 1.4534,10.1018157 1.4534,9.7266 C1.4534,9.35138431 1.75775294,9.04703137 2.13296863,9.04703137 L4.64885098,9.04703137 C5.02406667,9.04703137 5.32892941,9.35138431 5.32892941,9.7266 C5.32892941,10.1018157 5.02406667,10.4061686 4.64885098,10.4061686" id="Fill-4"></path>
                <path d="M4.64885098,13.3051686 L1.58951765,13.3051686 C1.21430196,13.3051686 0.909439216,13.0008157 0.909439216,12.6250902 C0.909439216,12.2498745 1.21430196,11.9455216 1.58951765,11.9455216 L4.64885098,11.9455216 C5.02406667,11.9455216 5.32892941,12.2498745 5.32892941,12.6250902 C5.32892941,13.0008157 5.02406667,13.3051686 4.64885098,13.3051686" id="Fill-6"></path>
                <path d="M4.92067843,16.2042196 L0.773423529,16.2042196 C0.398207843,16.2042196 0.093854902,15.8998667 0.093854902,15.5241412 C0.093854902,15.1489255 0.398207843,14.8445725 0.773423529,14.8445725 L4.92067843,14.8445725 C5.29640392,14.8445725 5.60075686,15.1489255 5.60075686,15.5241412 C5.60075686,15.8998667 5.29640392,16.2042196 4.92067843,16.2042196" id="Fill-8"></path>
            </g>
        </g>
    </g>
</svg>