<svg xmlns="http://www.w3.org/2000/svg" viewBox="0 0 256 64"><defs><style>.cls-1{fill:#f5f5f7;}.cls-2{fill:#173a35;}</style></defs><g id="圖層_2" data-name="圖層 2"><g id="圖層_1-2" data-name="圖層 1"><rect class="cls-1" width="256" height="64" rx="15"/><path class="cls-2" d="M47.05,20.86h6.2v4.07H38.78V20.86h5.83a43.44,43.44,0,0,0-2-4.18l4-1.9a34.26,34.26,0,0,1,2.59,4.93ZM40.32,26H52.38v3.88H40.32Zm0,5h12v3.89h-12ZM52.2,47.24H44.79v1.44H40.4V36.05H52.2Zm-7.41-7.09v3h3v-3ZM72.65,22.62H68.47V42.67c0,2.81-.61,4.29-2.45,5.11s-4.39,1-7.91,1a19,19,0,0,0-2.06-5.4c2.27.18,5.19.14,6,.14s1.08-.25,1.08-.94V22.62H54V17.51H72.65Z"/><path class="cls-2" d="M107,43.86c0,2.2-.36,3.38-1.62,4.18s-3,.86-5.22.86a13.7,13.7,0,0,0-.64-2.77,3,3,0,0,1-2.45.86h-1.8c-3.17,0-3.78-1.15-3.78-4.46V40.22H90.22c-.47,3.42-1.69,5.87-6.27,7.46a11.35,11.35,0,0,0-2.41-3.46c3.31-.86,4.14-2.12,4.5-4H84.42V35l-.72.43a22.32,22.32,0,0,0-2.8-2.31v16H76V15.93H90.43V27.34H80.9v5.58a17.35,17.35,0,0,0,6-5l4,1.22a22.36,22.36,0,0,1-3.86,4h9.15A42.32,42.32,0,0,0,91.77,30L94.43,28a42.71,42.71,0,0,1,7.2,5.25l-2.88,2.31c-.14-.15-.29-.29-.43-.47v5.14H95.73v2.27c0,.83,0,.9.32.9h.47c.39,0,.5-.32.61-2.48a10.81,10.81,0,0,0,3.6,1.47,13.59,13.59,0,0,1-.36,2.06h1c.43,0,.58-.18.58-.62V27.37H92.31V16H107ZM80.9,19.17v1h4.64v-1Zm4.64,5V23H80.9v1.12Zm2.88,13.21h5.65V36H88.42ZM97.27,19.2v1H102v-1Zm4.72,5V23.05H97.27v1.12Z"/><path class="cls-2" d="M124.35,29.75c-2.67.68-5.3,1.33-7.6,1.87l-1-2.77h-4.43V20.5h13.57v-1H113V16.18h29v3.35H130v1h13.86v8.35h-4.64l-.72,2.56a56.94,56.94,0,0,0-8.35-2.06l.93-2.84,1,.11-1.3-1.94a30,30,0,0,0,3.1-.87H130V30.9h-5.11V23.81H121a22.46,22.46,0,0,1,3,.83l-1.19,2.45,1.34-.18Zm14,15c1.73,0,2.09-.5,2.34-3.24A13.19,13.19,0,0,0,145,43.14c-.58,4.36-2,5.54-6.23,5.54h-7.13c-5.32,0-6.91-1.15-7-5h-4.82v1.44h-5V31.62h25.41v12H129.67c.08,1,.62,1.12,2.49,1.12ZM116.32,28c1.65-.18,3.71-.47,5.87-.8-1.44-.46-3.64-1.08-5.33-1.44l1-1.94h-1.58ZM119.81,35v1.12h4.82V35Zm0,5.18h4.82V39.14h-4.82ZM135,35h-5.4v1.12H135Zm0,5.18V39.14h-5.4v1.08Zm3.63-16.41h-1.44l1.26,1.69a32.46,32.46,0,0,1-4.93,1.37A44.73,44.73,0,0,1,138.67,28Z"/><path class="cls-2" d="M180.18,35.62H166.57v7.52c0,2.77-.61,4.21-2.55,5s-4.54,1-7.74.94a21.49,21.49,0,0,0-2.23-5.4c2.3.14,5.18.14,6,.11s1-.18,1-.79V35.62h-14V30.36h14V25.47A35,35,0,0,0,166.9,22H150.66V16.83h22.1l1.19-.29,4,3.1a56.87,56.87,0,0,1-11.38,8.56v2.16h13.61Z"/><path class="cls-2" d="M193.54,24H199v4.36h-3.2l2.09.5L196.35,32h1.9v4.35h-4.71v2.27H199V43h-5.43v6h-4.82V43h-6V38.64h6V36.37h-5.08V32h2.12a19,19,0,0,0-1.08-3.13l1.84-.54h-3.78V24h6V22.16h-5V17.87h5V15.1h4.82v2.77h4.64v4.29h-4.64Zm-1.48,8a28.46,28.46,0,0,0,1.33-3.67h-4.64a16.28,16.28,0,0,1,1.15,3.2l-1.47.47Zm24-2.2a37.64,37.64,0,0,1-3.39,11.48,16.71,16.71,0,0,0,4.57,3.5,18.71,18.71,0,0,0-3.38,4.1A17.4,17.4,0,0,1,210,45.62a20.94,20.94,0,0,1-3.56,3.6,16.49,16.49,0,0,0-2-2.3v2.2h-4.72V16.4h15.44v6.73c0,2.12-.43,3.38-2,4.06s-3.57.72-6.16.72a17.8,17.8,0,0,0-1.4-4.46c1.47.07,3.52.07,4,.07s.72-.11.72-.5V20.93h-5.9v8h7.66l.83-.18ZM204.45,44.47A18.34,18.34,0,0,0,207,41.56,37.56,37.56,0,0,1,204.45,36ZM207.68,33a29.5,29.5,0,0,0,1.77,3.92A27.5,27.5,0,0,0,210.67,33Z"/></g></g></svg>